<svg height="400" version="1.1" width="400" xmlns="http://www.w3.org/2000/svg">
  <path d="M130.6 244.3c7.3 16.3-5 37.3-26.8 46.4-21.9 9.1-45 2.8-51.7-14-6.7-16.9 5.6-37.9 27.5-47 21.2-8.5 45-2.8 51 14.7" fill="#030303"/>
  <path d="M99.9 96.5l29 .3-1.8 162-29-.3z" fill="#030303"/>
  <path d="M100.1 94.8l186.2-37.7 5.6 27.4-186.2 37.8z" fill="#000"/>
  <path d="M284.9 56.5l29 .3-1.8 161-29-.3z" fill="#030303"/>
  <path d="M315.6 214.3c7.3 16.3-5 37.3-26.8 46.4-21.9 9.1-45 2.8-51.7-14-6.7-16.9 5.6-37.9 27.5-47 21.2-8.5 45-2.8 51 14.7" fill="#030303"/>
</svg>
